<svg xmlns="http://www.w3.org/2000/svg" viewBox="0 0 100 100" width="100" height="100">
  <rect width="100" height="100" rx="16" fill="#f59e0b"/>
  <g fill="white" transform="translate(20, 18)">
    <!-- Sun -->
    <circle cx="30" cy="18" r="10" opacity="0.9"/>
    <rect x="28" y="2" width="4" height="6" rx="2" opacity="0.7"/>
    <rect x="28" y="26" width="4" height="6" rx="2" opacity="0.7"/>
    <rect x="14" y="16" width="6" height="4" rx="2" opacity="0.7"/>
    <rect x="40" y="16" width="6" height="4" rx="2" opacity="0.7"/>
    <!-- Solar panel -->
    <rect x="5" y="38" width="50" height="28" rx="3" fill="white" opacity="0.95"/>
    <rect x="8"  y="41" width="14" height="11" rx="1" fill="#f59e0b" opacity="0.6"/>
    <rect x="24" y="41" width="14" height="11" rx="1" fill="#f59e0b" opacity="0.6"/>
    <rect x="40" y="41" width="12" height="11" rx="1" fill="#f59e0b" opacity="0.6"/>
    <rect x="8"  y="54" width="14" height="9"  rx="1" fill="#f59e0b" opacity="0.6"/>
    <rect x="24" y="54" width="14" height="9"  rx="1" fill="#f59e0b" opacity="0.6"/>
    <rect x="40" y="54" width="12" height="9"  rx="1" fill="#f59e0b" opacity="0.6"/>
  </g>
</svg>
